<svg width="74" height="16" viewBox="0 0 74 16" fill="none" xmlns="http://www.w3.org/2000/svg">
<path d="M1 9C0.447715 9 4.82823e-08 8.55228 0 8C-4.82823e-08 7.44772 0.447715 7 1 7L1 9ZM73.7071 7.29289C74.0976 7.68341 74.0976 8.31658 73.7071 8.7071L67.3431 15.0711C66.9526 15.4616 66.3195 15.4616 65.9289 15.0711C65.5384 14.6805 65.5384 14.0474 65.9289 13.6568L71.5858 7.99999L65.9289 2.34314C65.5384 1.95262 65.5384 1.31945 65.9289 0.928927C66.3195 0.538402 66.9526 0.538402 67.3431 0.928926L73.7071 7.29289ZM1 7L73 6.99999L73 8.99999L1 9L1 7Z" fill="url(#paint0_linear_56_98)"/>
<defs>
<linearGradient id="paint0_linear_56_98" x1="1" y1="7.5" x2="73" y2="7.49999" gradientUnits="userSpaceOnUse">
<stop stop-color="#EB3349"/>
<stop offset="1" stop-color="#F45C43"/>
</linearGradient>
</defs>
</svg>
